HIERARCHY
ROOT root
{
	OFFSET	0	13.1	24.9
	CHANNELS 6  Xposition Yposition Zposition Xrotation Yrotation Zrotation
	JOINT spine_1
	{
		OFFSET	0	9.99999	0
		CHANNELS 3  Xrotation Yrotation Zrotation
		JOINT spine_2
		{
			OFFSET	0	112	-10
			CHANNELS 3  Xrotation Yrotation Zrotation
			JOINT spine_3
			{
				OFFSET	0	206.5	19.3
				CHANNELS 3  Xrotation Yrotation Zrotation
				JOINT spine_4
				{
					OFFSET	0	110.4	14.6
					CHANNELS 3  Xrotation Yrotation Zrotation
					JOINT neck_1
					{
						OFFSET	0	71.8	-50.3
						CHANNELS 3  Xrotation Yrotation Zrotation
						JOINT neck_2
						{
							OFFSET	0	86.2	-25.8
							CHANNELS 3  Xrotation Yrotation Zrotation
							JOINT head_ee
							{
								OFFSET	0	179.8	-8.7
								CHANNELS 3  Xrotation Yrotation Zrotation
								End Site
								{
									OFFSET	1	0	0
								}
							}
						}
					}
					JOINT left_clavicle
					{
						OFFSET	-43.2	22.4	-70.8
						CHANNELS 3  Xrotation Yrotation Zrotation
						JOINT left_shoulder
						{
							OFFSET	-93.9	-5.79999	48.7
							CHANNELS 3  Xrotation Yrotation Zrotation
							JOINT left_elbow
							{
								OFFSET	-291.4	-30.8	15.2
								CHANNELS 3  Xrotation Yrotation Zrotation
								JOINT left_lowarm_twist
								{
									OFFSET	-110.7	-3.89999	13.6
									CHANNELS 3  Xrotation Yrotation Zrotation
									JOINT left_hand
									{
										OFFSET	-110.7	-3.89999	13.6
										CHANNELS 3  Xrotation Yrotation Zrotation
										JOINT left_ee
										{
											OFFSET	-80.8	-5.10001	12.1
											CHANNELS 3  Xrotation Yrotation Zrotation
											End Site
											{
												OFFSET	1	0	0
											}
										}
									}
								}
							}
						}
					}
					JOINT right_clavicle
					{
						OFFSET	43.2	22.4	-70.8
						CHANNELS 3  Xrotation Yrotation Zrotation
						JOINT right_shoulder
						{
							OFFSET	93.9	-5.79999	48.7
							CHANNELS 3  Xrotation Yrotation Zrotation
							JOINT right_elbow
							{
								OFFSET	291.4	-30.8	15.2
								CHANNELS 3  Xrotation Yrotation Zrotation
								JOINT right_lowarm_twist
								{
									OFFSET	110.7	-3.89999	13.6
									CHANNELS 3  Xrotation Yrotation Zrotation
									JOINT right_hand
									{
										OFFSET	110.7	-3.89999	13.6
										CHANNELS 3  Xrotation Yrotation Zrotation
										JOINT right_ee
										{
											OFFSET	80.8	-5.10001	12.1
											CHANNELS 3  Xrotation Yrotation Zrotation
											End Site
											{
												OFFSET	1	0	0
											}
										}
									}
								}
							}
						}
					}
				}
			}
		}
	}
	JOINT left_hip
	{
		OFFSET	-82.8	-127.5	0.300001
		CHANNELS 3  Xrotation Yrotation Zrotation
		JOINT left_knee
		{
			OFFSET	-28.2	-396.7	2.2
			CHANNELS 3  Xrotation Yrotation Zrotation
			JOINT left_ankle
			{
				OFFSET	-11.7	-411.3	35.4
				CHANNELS 3  Xrotation Yrotation Zrotation
				JOINT left_toes
				{
					OFFSET	0	-60	-88.6
					CHANNELS 3  Xrotation Yrotation Zrotation
					JOINT left_foot_ee
					{
						OFFSET	-22.5	-16.5	-42.2
						CHANNELS 3  Xrotation Yrotation Zrotation
						End Site
						{
							OFFSET	1	0	0
						}
					}
				}
			}
		}
	}
	JOINT right_hip
	{
		OFFSET	82.8	-127.5	0.300001
		CHANNELS 3  Xrotation Yrotation Zrotation
		JOINT right_knee
		{
			OFFSET	28.2	-396.7	2.2
			CHANNELS 3  Xrotation Yrotation Zrotation
			JOINT right_ankle
			{
				OFFSET	11.7	-411.3	35.4
				CHANNELS 3  Xrotation Yrotation Zrotation
				JOINT right_toes
				{
					OFFSET	0	-60	-88.6
					CHANNELS 3  Xrotation Yrotation Zrotation
					JOINT right_foot_ee
					{
						OFFSET	22.5	-16.5	-42.2
						CHANNELS 3  Xrotation Yrotation Zrotation
						End Site
						{
							OFFSET	1	0	0
						}
					}
				}
			}
		}
	}
}
MOTION
Frames: 11
Frame Time: 0.02
2794.49 697.307 -595.587 150.446 -66.382 158.177 -4.00008 -0.331131 -0.609909 -3.99992 -0.29165 -0.629743 -3.99628 -0.10524 -0.685972 -3.99687 -0.212253 -0.660744 -2.81205 11.7104 6.01604 -2.63357 16.5835 7.90451 -0.0 0.0 -0.0 4.86286 23.5599 9.41755 -20.0986 -13.5292 67.4957 0.718644 -19.5955 0.124104 -21.2027 -1.208 2.41158 -0.127119 28.9198 10.6186 -0.0 0.0 -0.0 10.6946 25.7093 -20.4538 15.6211 13.4643 -58.9561 1.53812 37.3027 -0.519197 85.1337 4.44254 8.87228 1.34511 -27.2564 -18.4237 0.0 0.0 0.0 15.2661 17.3901 -16.3583 6.88144 -0.343886 -0.99897 -22.6003 -2.70035 3.46739 -8.28365 0.0 0.0 -0.0 0.0 -0.0 -29.6739 25.5167 -2.86048 -15.9571 -0.321871 -2.41974 30.8842 -0.87934 3.99796 -35.9876 0.0 0.0 0.0 0.0 0.0 
2821.36 704.405 -597.741 150.18 -65.1941 157.874 -4.17582 -0.274612 -0.807565 -4.17548 -0.22267 -0.823401 -4.17158 0.0174373 -0.852798 -4.17257 -0.11746 -0.84485 -4.76271 11.731 6.31478 -4.6169 16.8033 8.40918 -0.0 0.0 -0.0 4.92774 23.5716 9.5078 -18.9597 -14.373 67.5336 0.764327 -20.7379 0.139854 -22.3891 -1.30113 2.53168 -0.435518 28.8567 8.91079 -0.0 0.0 -0.0 10.0009 24.809 -18.9891 12.481 15.246 -59.418 1.49253 36.4753 -0.491831 85.1705 4.44695 8.87396 0.785192 -27.7831 -15.34 0.0 0.0 0.0 12.9065 17.8249 -16.0071 4.60792 -0.216993 -0.673489 -15.5467 -1.25427 2.36729 -8.34015 0.0 0.0 -0.0 0.0 -0.0 -28.8726 26.07 -1.8343 -20.2258 -0.292886 -3.0739 24.8231 -0.905671 3.32694 -37.8488 0.0 0.0 0.0 0.0 0.0 
2845.0 713.076 -600.742 150.138 -64.4698 158.273 -4.14428 -0.213218 -0.983802 -4.14375 -0.150188 -0.995374 -4.1402 0.134751 -0.997581 -4.14159 -0.0244811 -1.00634 -5.41335 11.8961 6.30954 -5.28091 17.2491 8.50387 -0.0 0.0 -0.0 5.31973 24.0947 10.0316 -17.8719 -14.7599 66.6998 0.807852 -21.8105 0.155647 -23.2178 -1.36766 2.61443 -0.498971 28.7393 8.52081 -0.0 0.0 -0.0 9.8836 24.9144 -18.716 9.74244 14.3841 -59.5961 1.43723 35.4473 -0.459353 85.2928 4.46162 8.87955 0.196422 -27.5729 -11.9443 0.0 0.0 0.0 10.9737 18.5907 -15.5763 3.43515 -0.156626 -0.503732 -9.98657 2.31929 1.49806 -9.60587 0.0 0.0 -0.0 0.0 -0.0 -28.086 26.4659 -1.72417 -23.2445 -0.24302 -3.53437 19.1575 0.929124 2.65224 -40.2214 0.0 0.0 0.0 0.0 0.0 
2868.68 718.468 -605.691 149.809 -64.1209 158.137 -4.04164 -0.119604 -1.17931 -4.04087 -0.0443243 -1.18453 -4.03879 0.287373 -1.15001 -4.04062 0.102158 -1.18095 -6.31725 12.2173 6.60042 -6.19755 17.8211 8.96131 -0.0 0.0 -0.0 5.02678 24.133 9.62431 -16.2793 -15.5704 67.6476 0.926375 -24.65 0.20241 -25.9611 -1.59634 2.88139 -1.04637 28.852 5.59861 -0.0 0.0 -0.0 9.25543 23.9851 -17.4053 6.78936 14.9992 -59.9984 1.36076 33.9814 -0.415802 85.2441 4.45578 8.87733 -0.256203 -26.966 -9.19538 0.0 0.0 0.0 8.16275 19.5747 -14.6072 4.42049 -0.207111 -0.64644 -7.21384 2.62186 1.07697 -10.8699 0.0 0.0 -0.0 0.0 -0.0 -26.3172 26.521 -1.81775 -28.4207 -0.10131 -4.31583 14.4912 1.01477 2.04868 -40.1689 0.0 0.0 0.0 0.0 0.0 
2889.36 716.472 -610.244 150.664 -63.3813 159.013 -3.89128 -0.100378 -1.3537 -3.89026 -0.0140433 -1.35734 -3.88849 0.361179 -1.30849 -3.89085 0.150015 -1.3491 -6.45077 12.5023 4.95067 -6.37984 19.5879 7.39308 -0.0 0.0 -0.0 5.97314 24.0132 10.9465 -15.0413 -15.236 66.4434 0.913431 -24.3458 0.197043 -27.654 -1.74378 3.04062 -1.66085 28.8374 2.28636 -0.0 0.0 -0.0 8.81691 24.3268 -16.3985 4.59141 14.4406 -60.3189 1.276 32.2953 -0.369462 85.2254 4.45354 8.87647 -0.709117 -27.8447 -7.02471 0.0 0.0 0.0 6.89855 20.0856 -14.3133 2.67989 -0.119599 -0.393782 1.52281 2.97237 -0.223001 -14.4907 0.0 0.0 -0.0 0.0 -0.0 -25.7099 26.7923 -0.497865 -31.2621 0.0063414 -4.73856 6.90846 4.05599 1.01465 -38.5057 0.0 0.0 0.0 0.0 0.0 
2910.58 711.508 -610.541 149.904 -63.1712 157.941 -3.74067 -0.198998 -1.38752 -3.7396 -0.110312 -1.39737 -3.7353 0.276006 -1.37428 -3.73793 0.0555219 -1.40062 -6.96757 12.8739 5.24807 -6.90847 20.1646 7.8404 -0.0 0.0 -0.0 6.56412 23.9198 11.7839 -13.1186 -15.4593 64.8113 0.906523 -24.1829 0.194204 -29.3041 -1.89197 3.19159 -1.91065 27.3469 0.235967 -0.0 0.0 -0.0 8.41757 24.5759 -15.4901 2.20976 14.3315 -60.5034 1.22977 31.3481 -0.345082 85.1801 4.44811 8.8744 -1.31104 -28.4254 -3.98755 0.0 0.0 0.0 5.04654 20.4826 -13.3726 2.09463 -0.0919062 -0.308259 7.79779 3.19666 -1.12053 -18.276 0.0 0.0 -0.0 0.0 -0.0 -24.9069 27.0432 0.613479 -34.6334 0.161108 -5.23262 -3.70288 5.64764 -0.563493 -39.2204 0.0 0.0 0.0 0.0 0.0 
2931.88 722.436 -611.805 148.085 -63.0335 156.204 -3.89663 -0.301674 -1.40843 -3.89556 -0.21145 -1.42476 -3.88845 0.190002 -1.42778 -3.89129 -0.0378494 -1.43987 -9.08023 12.6614 5.27432 -9.10462 20.145 8.15646 -0.0 0.0 -0.0 7.27778 24.0754 12.7789 -11.6945 -15.4382 63.9634 0.903874 -24.1203 0.19312 -30.0575 -1.96107 3.25909 -1.97866 25.2654 -1.14143 -0.0 0.0 -0.0 7.9724 22.9972 -14.6559 0.753372 14.0889 -61.7299 1.18457 30.4034 -0.321889 83.5073 4.2487 8.79499 -1.69394 -27.5594 -1.51942 0.0 0.0 0.0 1.23469 21.2173 -11.7838 3.41178 -0.155458 -0.500337 9.70759 3.02787 -1.38625 -20.0257 0.0 0.0 -0.0 0.0 -0.0 -18.8003 27.1082 -1.29895 -45.6238 0.862744 -6.76691 -11.2507 8.91352 -1.76272 -39.9536 0.0 0.0 0.0 0.0 0.0 
2947.67 728.09 -613.518 149.008 -62.7558 157.384 -3.83753 -0.135759 -1.44105 -3.83638 -0.0437959 -1.44677 -3.83361 0.355926 -1.403 -3.83634 0.129906 -1.44159 -8.68499 12.4674 5.65533 -8.67654 19.4424 8.41614 -0.0 0.0 -0.0 7.78464 24.0254 13.507 -9.67517 -16.3552 62.7025 0.95384 -25.2905 0.214004 -31.9485 -2.13838 3.42451 -2.27855 23.5564 -3.68772 -0.0 0.0 -0.0 7.48429 21.4862 -13.7152 -0.858344 13.6005 -62.5066 1.04348 27.3342 -0.253744 81.9852 4.06932 8.71769 -2.23571 -27.5155 1.45767 0.0 0.0 0.0 -0.87613 21.8077 -11.148 6.09952 -0.298784 -0.887589 8.81396 3.52813 -1.26165 -21.6526 0.0 0.0 -0.0 0.0 -0.0 -14.365 24.4706 -1.96481 -50.4797 1.2642 -7.39724 -16.7488 10.2133 -2.65786 -40.0078 0.0 0.0 0.0 0.0 0.0 
2960.21 729.946 -615.723 153.026 -61.2216 161.355 -3.70411 -0.0452091 -1.65718 -3.70259 0.0603185 -1.6567 -3.70239 0.510229 -1.57735 -3.70577 0.254748 -1.63811 -10.3096 12.5306 6.75492 -10.3194 19.1244 9.74679 -0.0 0.0 -0.0 8.17045 23.8137 14.0889 -8.0069 -17.4244 62.0799 0.995845 -26.2572 0.23227 -32.3679 -2.17845 3.46041 -2.80399 21.7652 -7.67792 -0.0 0.0 -0.0 7.34507 20.7458 -13.472 -1.91441 13.07 -62.4182 1.05473 27.5857 -0.258935 81.2888 3.98794 8.68074 -2.28302 -28.419 1.26164 0.0 0.0 0.0 -2.08956 22.0691 -10.9346 7.47582 -0.379189 -1.08323 11.3097 3.40779 -1.60486 -21.9477 0.0 0.0 -0.0 0.0 -0.0 -11.0849 25.0186 -1.64373 -53.264 1.51817 -7.74286 -20.7412 11.5744 -3.32472 -38.799 0.0 0.0 0.0 0.0 0.0 
2976.94 736.305 -614.5 151.342 -61.4028 160.01 -3.80638 -0.0263768 -1.77434 -3.80463 0.0865647 -1.77243 -3.80509 0.57011 -1.68049 -3.80891 0.297596 -1.74941 -11.0725 12.138 6.16418 -11.1281 18.917 9.19993 -0.0 0.0 -0.0 8.40159 24.399 14.3407 -6.15312 -17.7746 61.7907 1.08113 -28.1709 0.271276 -33.926 -2.32957 3.59118 -2.91703 20.1658 -9.22097 -0.0 0.0 -0.0 7.23081 19.4707 -13.3241 -3.70319 12.416 -62.8594 0.987486 26.0661 -0.228584 80.607 3.90872 8.64362 -2.53905 -27.4448 3.15188 0.0 0.0 0.0 -3.64876 22.6347 -10.4043 6.78541 -0.338265 -0.985325 14.7856 3.81902 -2.06887 -20.3538 0.0 0.0 -0.0 0.0 -0.0 -7.19311 22.4827 -3.38316 -55.8941 1.77332 -8.05779 -23.081 18.801 -3.91248 -40.3091 0.0 0.0 0.0 0.0 0.0 
2987.64 738.937 -615.369 152.422 -61.1941 161.38 -3.75166 -0.0595173 -1.87461 -3.7497 0.0598684 -1.8746 -3.74914 0.570771 -1.78663 -3.75349 0.281494 -1.85432 -11.8391 11.9171 6.94784 -11.8771 18.128 10.0026 -0.0 0.0 -0.0 8.56076 24.5676 14.544 -3.72654 -18.6115 61.4698 1.17378 -30.1751 0.316447 -35.2508 -2.46082 3.69912 -3.23864 18.3167 -12.2138 -0.0 0.0 -0.0 7.12383 18.6285 -13.1548 -4.58554 11.7057 -62.7611 0.911677 24.3045 -0.19632 80.1546 3.85639 8.61846 -2.68622 -27.4816 3.93828 0.0 0.0 0.0 -4.02426 22.7805 -10.419 7.08989 -0.356167 -1.02856 12.7207 4.23088 -1.79374 -20.3724 0.0 0.0 -0.0 0.0 -0.0 -4.51584 20.8179 -4.38156 -56.9712 1.88196 -8.18337 -22.469 20.4842 -3.86981 -40.1125 0.0 0.0 0.0 0.0 0.0 
